<svg width="100" height="100" fill="none" xmlns="http://www.w3.org/2000/svg"><path fill-rule="evenodd" clip-rule="evenodd" d="M14.286 71.43c7.89 0 14.286 6.395 14.286 14.285 0 7.89-6.396 14.286-14.286 14.286S0 93.605 0 85.715 6.396 71.43 14.286 71.43Z" fill="#5A55F4"/><path fill-rule="evenodd" clip-rule="evenodd" d="M28.572 52.441c0 7.89-6.396 14.286-14.286 14.286S0 60.33 0 52.44V14.286C0 6.396 6.396 0 14.286 0c3.984 0 7.588 1.633 10.179 4.263l71.35 71.351c5.578 5.578 5.578 14.623 0 20.201-5.578 5.578-14.622 5.578-20.2 0L28.571 48.773v3.668ZM100 36.053c0 7.89-6.396 14.286-14.286 14.286S71.43 43.943 71.43 36.053V14.286C71.429 6.396 77.825 0 85.714 0 93.604 0 100 6.396 100 14.286v21.767Z" fill="#1D1F2F"/></svg>