<?xml version="1.0" encoding="UTF-8"?>
<svg version="1.1" xmlns="http://www.w3.org/2000/svg" width="4096" height="4096">
<path d="M0 0 C32.12749197 -0.04586747 64.25497442 -0.08114315 96.3824916 -0.10213066 C100.19656347 -0.10463134 104.01063526 -0.10722006 107.82470703 -0.10986328 C108.58385185 -0.1103879 109.34299667 -0.11091252 110.12514588 -0.11145304 C122.33227055 -0.12009773 134.5393759 -0.135834 146.7464892 -0.15430559 C159.32143983 -0.1731716 171.89638051 -0.1841515 184.47134471 -0.18817699 C191.5137033 -0.1906479 198.55602167 -0.19652012 205.59836578 -0.21146011 C241.12999644 -0.28461717 276.58897841 -0.27377804 311.9375 3.8125 C312.68685822 3.89648041 313.43621643 3.98046082 314.20828247 4.06698608 C356.04170411 8.77799381 399.01403716 17.13378416 437 36 C437.77875488 36.38124023 438.55750977 36.76248047 439.35986328 37.15527344 C450.30209574 42.55352845 460.35072354 48.53387234 470 56 C470.928125 56.70511719 471.85625 57.41023438 472.8125 58.13671875 C497.85921997 77.83188663 514.75524786 103.19332887 523 134 C523.33668701 135.25731934 523.33668701 135.25731934 523.68017578 136.54003906 C527.01931623 149.81972118 527.38319339 163.13444069 527.4375 176.75 C527.44385468 177.56281433 527.45020935 178.37562866 527.45675659 179.21307373 C527.66545926 222.15161439 511.30940464 259.91426781 482 291 C481.32839844 291.73605469 480.65679688 292.47210937 479.96484375 293.23046875 C429.43705735 346.59158897 340.40413218 351.0240351 272 354 C276.57372583 355.55884159 281.1475991 357.11724848 285.72167969 358.67504883 C289.83086532 360.0745777 293.93950339 361.47570038 298.04785156 362.87768555 C309.72227535 366.85871842 321.40534621 370.81215726 333.10301781 374.72425461 C337.15928002 376.08187023 341.21395999 377.44420577 345.26863194 378.80656242 C349.24364149 380.14149455 353.22119585 381.46848604 357.20063114 382.79016209 C360.28717211 383.81787649 363.3698181 384.85716201 366.453125 385.89453125 C368.14217201 386.4514138 368.14217201 386.4514138 369.86534119 387.01954651 C371.41167992 387.54318031 371.41167992 387.54318031 372.98925781 388.07739258 C373.88896301 388.37776932 374.78866821 388.67814606 375.71563721 388.98762512 C379.73348177 390.7682376 381.5755582 393.69440238 383.86328125 397.33203125 C384.41306641 398.20150391 384.96285156 399.07097656 385.52929688 399.96679688 C386.11775391 400.90587891 386.70621094 401.84496094 387.3125 402.8125 C388.57932412 404.81907543 389.84625411 406.82558401 391.11328125 408.83203125 C391.75990723 409.85893066 392.4065332 410.88583008 393.07275391 411.94384766 C396.03346033 416.63882143 399.01710565 421.31910496 402 426 C403.16679325 427.83325277 404.33345951 429.66658638 405.5 431.5 C406.0775 432.4075 406.655 433.315 407.25 434.25 C510.49999999 596.49999999 510.49999999 596.49999999 512.24951172 599.24926758 C513.41776388 601.08506912 514.58605824 602.9208438 515.75439453 604.7565918 C518.64714755 609.30194376 521.5391977 613.84773967 524.4296875 618.39453125 C530.60466368 628.10608469 536.7933621 637.8086463 543 647.5 C549.78028179 658.08706986 556.53742103 668.68864146 563.28222656 679.29833984 C566.76899824 684.78222492 570.2585199 690.26436118 573.74829102 695.74633789 C576.68020354 700.35245887 579.60988869 704.9599681 582.53515625 709.5703125 C583.7109114 711.42189158 584.88669249 713.27345418 586.0625 715.125 C586.91739014 716.47331909 586.91739014 716.47331909 587.78955078 717.84887695 C590.7450811 722.4992074 593.73136809 727.12581738 596.76953125 731.72265625 C597.67723267 733.1001001 597.67723267 733.1001001 598.60327148 734.50537109 C599.7595328 736.25577578 600.92155518 738.00239238 602.09008789 739.74462891 C602.60434326 740.52370605 603.11859863 741.3027832 603.6484375 742.10546875 C604.10395996 742.78762451 604.55948242 743.46978027 605.02880859 744.17260742 C606 746 606 746 606 749 C589.46390708 750.44050588 577.15960348 746.54632184 562 740.25 C559.73085919 739.3378599 557.4602334 738.42940642 555.18823242 737.52441406 C550.47434712 735.64358118 545.76718091 733.74718973 541.06396484 731.83984375 C530.95473694 727.75589714 520.7650534 723.88430568 510.57781982 720.00024414 C507.32350477 718.75421357 504.07434694 717.49561895 500.82666016 716.23242188 C491.5604222 712.63220309 482.29633154 709.06536865 472.91233826 705.78167725 C469.11150854 704.44778143 465.32510782 703.07547232 461.53939819 701.69934082 C459.79919263 701.0792953 458.05203011 700.47835007 456.29776001 699.89929199 C444.61230995 696.03782588 438.70126967 691.78467015 432.91552734 680.78173828 C432.58381531 680.12167786 432.25210327 679.46161743 431.91033936 678.78155518 C430.80573466 676.61981823 429.53326375 674.61138877 428.1796875 672.59765625 C427.79828613 672.01137451 427.41688477 671.42509277 427.02392578 670.82104492 C426.64478027 670.2407251 426.26563477 669.66040527 425.875 669.0625 C421.25699695 661.95950703 416.68603325 654.82719019 412.125 647.6875 C405.62115633 637.51167382 399.06154673 627.37371633 392.46875 617.25537109 C384.93402545 605.68526049 377.47911524 594.06504173 370.04370117 582.4309082 C365.37435574 575.13102331 360.66700375 567.8571587 355.93408203 560.59838867 C350.89081226 552.85386496 345.91654299 545.06574567 340.94140625 537.27734375 C336.82194117 530.8332669 332.67736329 524.40667936 328.5 518 C322.93015504 509.45771908 317.43111625 500.87129204 311.94140625 492.27734375 C307.82194117 485.8332669 303.67736329 479.40667936 299.5 473 C294.62638513 465.52550338 289.80355712 458.01970162 285 450.5 C278.53861022 440.3861184 272.02057265 430.31083105 265.46875 420.25537109 C257.94500641 408.70212255 250.49954157 397.09971452 243.07666016 385.48144531 C238.05760653 377.63294673 232.9967958 369.81261301 227.89697266 362.01635742 C227.39601074 361.24912354 226.89504883 360.48188965 226.37890625 359.69140625 C225.9413501 359.02310791 225.50379395 358.35480957 225.05297852 357.66625977 C224 356 224 356 223 354 C212.44 353.67 201.88 353.34 191 353 C190.85605558 387.63372506 190.7688413 422.26687153 190.76939832 456.90089679 C190.76941012 460.99610577 190.76889973 465.09131454 190.76806641 469.18652344 C190.7679093 470.00175492 190.76775219 470.8169864 190.76759031 471.65692186 C190.76380801 484.83157077 190.71778954 498.00574722 190.65597185 511.18023705 C190.5934182 524.71346623 190.57669438 538.24620154 190.60190511 551.77955437 C190.61601754 560.12082979 190.59501528 568.46046195 190.52809784 576.80148733 C190.48555277 582.53283597 190.48780164 588.26311478 190.52415326 593.99450076 C190.54379781 597.29487731 190.53809769 600.59164826 190.49215889 603.89184952 C190.28771919 619.5582624 191.32999898 629.87028844 202.50054216 641.38069153 C204.94100009 644.01621359 206.89664084 646.92168631 208.9375 649.875 C209.75100914 651.02456791 210.5659428 652.17313013 211.3828125 653.3203125 C211.80208008 653.91102539 212.22134766 654.50173828 212.65332031 655.11035156 C215.18948166 658.66906962 217.75207901 662.20871743 220.3125 665.75 C221.13089355 666.88236084 221.13089355 666.88236084 221.96582031 668.03759766 C223.64356561 670.35862608 225.32171566 672.67936132 227 675 C228.12244166 676.55205019 229.24483765 678.10413341 230.3671875 679.65625 C230.91826172 680.41776367 231.46933594 681.17927734 232.03710938 681.96386719 C233.13009566 683.47787955 234.21998628 684.99413192 235.30664062 686.51269531 C237.82294537 690.02471574 240.36652792 693.4955485 243.0390625 696.890625 C243.50868408 697.50260742 243.97830566 698.11458984 244.4621582 698.74511719 C245.7153344 700.37372513 246.99152202 701.98455554 248.26953125 703.59375 C250 707 250 707 250 717 C168.49 717 86.98 717 3 717 C3 706.6601794 3.05409126 704.35898695 9.1875 697.4375 C10.48868383 695.87228634 11.78678793 694.30450809 13.08203125 692.734375 C14.07130615 691.55391602 14.07130615 691.55391602 15.08056641 690.34960938 C18.02017984 686.75118154 20.69538753 682.98123167 23.375 679.1875 C28.10956923 672.55124607 32.97904669 666.03306784 37.9375 659.5625 C43.31403843 652.54609136 48.63463333 645.49382078 53.875 638.375 C54.464021 637.57521729 55.05304199 636.77543457 55.65991211 635.95141602 C60.19009211 629.7804999 62.29643615 626.11959909 62.2796154 618.28622818 C62.28551825 617.38060393 62.2914211 616.47497967 62.29750282 615.54191226 C62.31495464 612.47909883 62.31805237 609.41643584 62.32125854 606.35357666 C62.33071581 604.14665642 62.34101699 601.93973966 62.35209382 599.73282695 C62.37996782 593.64592698 62.39509067 587.55905099 62.40803981 581.47210336 C62.42239478 575.58824835 62.44601329 569.70443469 62.46898977 563.82060811 C62.53272945 547.30026067 62.5723733 530.77987553 62.60756081 514.25944626 C62.61709645 509.78403945 62.62711385 505.30863378 62.63717127 500.83322811 C62.69927342 473.04966243 62.75250653 445.26608716 62.78600883 417.48247147 C62.79388326 411.04381543 62.80190695 404.60515959 62.81005859 398.16650391 C62.81106193 397.36658342 62.81206527 396.56666294 62.81309901 395.74250245 C62.84591692 369.82173857 62.92280151 343.9013529 63.0246328 317.98077499 C63.129142 291.32990687 63.1946478 264.67924008 63.2091639 238.02816291 C63.21122101 234.2614686 63.21369364 230.49477465 63.21640396 226.72808075 C63.21692004 225.98677979 63.21743611 225.24547883 63.21796783 224.4817142 C63.22734768 212.56508199 63.27717543 200.64894891 63.34190682 188.73250333 C63.40607189 176.7451336 63.42588458 164.75832418 63.40104292 152.77080318 C63.38939201 146.27937105 63.39709514 139.78950012 63.4573822 133.2983036 C63.5121798 127.3495101 63.51106273 121.40338396 63.4663613 115.45453021 C63.45992526 113.30829805 63.47359691 111.16188619 63.50995575 109.01595238 C63.72026816 95.79639684 62.23138099 87.67333446 52.90338433 77.93517756 C52.39895669 77.43125455 51.89452904 76.92733154 51.37481572 76.40813813 C49.60115216 74.59148499 48.10502567 72.62204416 46.625 70.5625 C46.18414063 69.96630859 45.74328125 69.37011719 45.2890625 68.75585938 C44.86367188 68.17642578 44.43828125 67.59699219 44 67 C40.10223226 61.74626279 36.11253341 56.5872768 32 51.5 C27.34680806 45.74248084 22.86674826 39.87648585 18.44946289 33.93652344 C14.15702151 28.17552215 9.73770131 22.52213317 5.27734375 16.890625 C4.52582031 15.93671875 3.77429688 14.9828125 3 14 C2.46189697 13.38866211 1.92379395 12.77732422 1.36938477 12.14746094 C-0.3313487 9.48038097 -0.31111676 7.88162447 -0.1875 4.75 C-0.16042969 3.85796875 -0.13335938 2.9659375 -0.10546875 2.046875 C-0.07066406 1.37140625 -0.03585937 0.6959375 0 0 Z M191 36 C191 128.73 191 221.46 191 317 C287.95944805 319.49911443 287.95944805 319.49911443 371.6875 275.75 C399.96898256 247.17283414 407.52093071 206.52737311 408.25 167.75 C407.67464895 138.15538021 400.84306589 108.76730718 381 86 C380.52175781 85.39027344 380.04351563 84.78054688 379.55078125 84.15234375 C353.9929244 52.00363556 306.14647945 42.03071985 267.87109375 37.578125 C241.98088881 35.02872358 217.65131696 36 191 36 Z " fill="#000000" transform="translate(691,1575)"/>
<path d="M0 0 C63.53277333 -1.09186291 133.6308293 15.84784417 181.15625 60.109375 C183.22644422 62.03409611 185.35374984 63.86247487 187.51171875 65.6875 C191.52017931 69.19290674 194.90233837 73.05555262 198.32421875 77.125 C199.13632813 78.04925781 199.9484375 78.97351562 200.78515625 79.92578125 C239.06155786 123.72207961 256.52710696 177.6954361 256.57421875 235.5 C256.57489349 236.25489716 256.57556824 237.00979431 256.57626343 237.78756714 C256.48654291 301.84382781 238.95668287 362.92269682 192.9362793 408.88574219 C177.35996514 423.977068 158.46203752 436.06479752 139.32421875 446.125 C138.5264502 446.54894043 137.72868164 446.97288086 136.90673828 447.40966797 C69.41216848 482.81941256 -14.83179657 486.08063117 -87.05078125 464.375 C-123.02502652 453.08373409 -157.25455467 434.13575502 -184.67578125 408.125 C-185.1651416 407.66818848 -185.65450195 407.21137695 -186.15869141 406.74072266 C-227.30696363 368.12977771 -245.97067182 310.37230361 -247.74401855 254.99407959 C-247.88607552 249.18388756 -247.92184677 243.3742531 -247.92578125 237.5625 C-247.92645599 236.66137482 -247.92713074 235.76024963 -247.92782593 234.83181763 C-247.8552169 173.43239932 -230.41342776 114.0952907 -186.375 69.7578125 C-171.98073414 55.69639834 -155.05368532 45.08668942 -137.67578125 35.125 C-136.71671875 34.56304932 -136.71671875 34.56304932 -135.73828125 33.98974609 C-95.15181308 10.2809293 -46.38790854 1.57748467 0 0 Z M-74.67578125 57.125 C-75.64902344 58.00671875 -76.62226563 58.8884375 -77.625 59.796875 C-90.08337598 71.42349293 -98.79517265 85.63811145 -105.67578125 101.125 C-105.97967773 101.80191895 -106.28357422 102.47883789 -106.59667969 103.17626953 C-121.53594586 137.09653504 -124.0984803 175.37556867 -123.98828125 211.9375 C-123.98645844 213.19268433 -123.98463562 214.44786865 -123.98275757 215.74108887 C-123.93562327 235.04005238 -123.42850288 254.00097003 -120.67578125 273.125 C-120.41837158 274.94475342 -120.41837158 274.94475342 -120.15576172 276.80126953 C-112.33643345 330.23683995 -93.34162763 390.1049098 -48.52148438 424.25024414 C-24.84610669 441.44579726 4.65792084 448.76746391 33.68286133 444.35375977 C53.2611477 440.80897194 69.11411943 431.93448293 83.32421875 418.125 C84.13246094 417.39023438 84.94070313 416.65546875 85.7734375 415.8984375 C120.18767867 383.59119069 130.48333076 328.21207614 132.32421875 283.125 C133.61780642 236.39942056 131.19418324 190.80653678 116.32421875 146.125 C116.03353516 145.24763184 115.74285156 144.37026367 115.44335938 143.46630859 C108.42736528 122.76293088 98.30569983 102.73904769 85.32421875 85.125 C84.90495117 84.54782227 84.48568359 83.97064453 84.05371094 83.37597656 C64.49361086 56.67372123 39.32215216 38.62251479 6.32421875 33.125 C-22.79265393 28.8889124 -52.99828837 36.97500662 -74.67578125 57.125 Z " fill="#000000" transform="translate(3125.67578125,1828.875)"/>
<path d="M0 0 C63.53277333 -1.09186291 133.6308293 15.84784417 181.15625 60.109375 C183.22644422 62.03409611 185.35374984 63.86247487 187.51171875 65.6875 C191.52017931 69.19290674 194.90233837 73.05555262 198.32421875 77.125 C199.13632813 78.04925781 199.9484375 78.97351562 200.78515625 79.92578125 C239.06155786 123.72207961 256.52710696 177.6954361 256.57421875 235.5 C256.57489349 236.25489716 256.57556824 237.00979431 256.57626343 237.78756714 C256.48654291 301.84382781 238.95668287 362.92269682 192.9362793 408.88574219 C177.35996514 423.977068 158.46203752 436.06479752 139.32421875 446.125 C138.5264502 446.54894043 137.72868164 446.97288086 136.90673828 447.40966797 C105.84361709 463.70634474 72.06997176 472.33896074 37.32421875 476.125 C36.0256897 476.26856934 36.0256897 476.26856934 34.70092773 476.41503906 C-39.53872379 483.63269314 -116.499626 464.7093009 -174.67578125 417.125 C-178.11056619 414.22428223 -181.41424262 411.21877416 -184.67578125 408.125 C-185.1651416 407.66818848 -185.65450195 407.21137695 -186.15869141 406.74072266 C-227.30696363 368.12977771 -245.97067182 310.37230361 -247.74401855 254.99407959 C-247.88607552 249.18388756 -247.92184677 243.3742531 -247.92578125 237.5625 C-247.92645599 236.66137482 -247.92713074 235.76024963 -247.92782593 234.83181763 C-247.8552169 173.43239932 -230.41342776 114.0952907 -186.375 69.7578125 C-171.98073414 55.69639834 -155.05368532 45.08668942 -137.67578125 35.125 C-136.71671875 34.56304932 -136.71671875 34.56304932 -135.73828125 33.98974609 C-95.15181308 10.2809293 -46.38790854 1.57748467 0 0 Z M-74.67578125 57.125 C-75.64902344 58.00671875 -76.62226562 58.8884375 -77.625 59.796875 C-90.08337598 71.42349293 -98.79517265 85.63811145 -105.67578125 101.125 C-105.97967773 101.80191895 -106.28357422 102.47883789 -106.59667969 103.17626953 C-121.53594586 137.09653504 -124.0984803 175.37556867 -123.98828125 211.9375 C-123.98645844 213.19268433 -123.98463562 214.44786865 -123.98275757 215.74108887 C-123.93562327 235.04005238 -123.42850288 254.00097003 -120.67578125 273.125 C-120.41837158 274.94475342 -120.41837158 274.94475342 -120.15576172 276.80126953 C-112.33643345 330.23683995 -93.34162763 390.1049098 -48.52148438 424.25024414 C-24.84610669 441.44579726 4.65792084 448.76746391 33.68286133 444.35375977 C53.2611477 440.80897194 69.11411943 431.93448293 83.32421875 418.125 C84.13246094 417.39023438 84.94070313 416.65546875 85.7734375 415.8984375 C120.18767867 383.59119069 130.48333076 328.21207614 132.32421875 283.125 C133.61780642 236.39942056 131.19418324 190.80653678 116.32421875 146.125 C116.03353516 145.24763184 115.74285156 144.37026367 115.44335938 143.46630859 C108.42736528 122.76293088 98.30569983 102.73904769 85.32421875 85.125 C84.90495117 84.54782227 84.48568359 83.97064453 84.05371094 83.37597656 C64.49361086 56.67372123 39.32215216 38.62251479 6.32421875 33.125 C-22.79265393 28.8889124 -52.99828837 36.97500662 -74.67578125 57.125 Z " fill="#000000" transform="translate(1553.67578125,1828.875)"/>
<path d="M0 0 C69.3 0 138.6 0 210 0 C210 11.24668058 209.5233654 14.36035031 203.4375 22.5625 C201.98285834 24.62822631 200.53123218 26.69607814 199.08203125 28.765625 C198.68908875 29.31906082 198.29614624 29.87249664 197.89129639 30.44270325 C192.79162725 37.64009216 188.00345998 45.04405921 183.18191528 52.4291687 C180.68251622 56.25525743 178.17270636 60.07450082 175.6640625 63.89453125 C175.22200974 64.56848938 174.77995697 65.24244751 174.32450867 65.93682861 C172.55790863 68.63019423 170.78672118 71.31991824 169 74 C169.13285169 79.97037782 172.30550987 84.80876047 175.0859375 89.921875 C176.18837441 91.99150773 177.28817075 94.06254853 178.38574219 96.13476562 C178.97319214 97.24343994 179.56064209 98.35211426 180.16589355 99.49438477 C183.39557613 105.66743129 186.49694175 111.90400466 189.6015625 118.140625 C190.26204366 119.4652407 190.92258686 120.78982547 191.58319092 122.11437988 C193.59924861 126.15853175 195.6123726 130.20414015 197.625 134.25 C200.30209897 139.63150054 202.98079068 145.01219918 205.6640625 150.390625 C205.98945763 151.04293594 206.31485275 151.69524689 206.65010834 152.36732483 C210.33113935 159.74054524 214.05291196 167.08658745 217.9296875 174.359375 C222.37895957 182.70908324 226.62025905 191.15965846 230.84375 199.625 C231.19332134 200.32558281 231.54289268 201.02616562 231.9030571 201.74797821 C234.8051183 207.56615696 237.70195677 213.38693296 240.59869385 219.20776367 C243.11553115 224.2646814 245.63425395 229.32065289 248.15625 234.375 C248.50532536 235.07465063 248.85440071 235.77430126 249.21405411 236.49515343 C253.50101634 245.08089987 257.85460611 253.62415844 262.36605835 262.09455872 C268.16467352 273.01631166 273.61222678 284.11973145 279.125 295.1875 C280.28366476 297.50986013 281.4425178 299.83212634 282.6015625 302.15429688 C285.40320639 307.76845366 288.20254998 313.38375239 291 319 C293.92459984 316.07540016 295.01958118 312.40257101 296.53515625 308.62109375 C297.06041397 307.32869026 297.06041397 307.32869026 297.59628296 306.01017761 C298.3563166 304.13871159 299.11407483 302.26632027 299.86984253 300.39312744 C301.48962906 296.37899461 303.12057319 292.36942929 304.75117493 288.35968018 C305.59420935 286.28660678 306.43672212 284.21332117 307.2787323 282.13983154 C311.28413202 272.28170893 315.35277284 262.45046072 319.4375 252.625 C320.84144566 249.24491615 322.24493163 245.86464148 323.6484375 242.484375 C324.00029114 241.63713364 324.35214478 240.78989227 324.71466064 239.91697693 C329.00890293 229.57446066 333.28700392 219.22527733 337.5625 208.875 C337.9619986 207.90795135 338.36149719 206.94090271 338.77310181 205.94454956 C344.57059665 191.90836278 350.34322427 177.86213865 356.09924316 163.80889893 C360.94062148 151.99059773 365.81755318 140.18744028 370.71582031 128.39260864 C371.7976854 125.78569794 372.87770745 123.17803213 373.95703125 120.57006836 C374.65230557 118.89044643 375.3476175 117.21084008 376.04296875 115.53125 C376.37952484 114.71825943 376.71608093 113.90526886 377.06283569 113.06764221 C378.92740784 108.56922336 380.80706843 104.07765552 382.70555115 99.59344482 C383.52245895 97.66075657 384.33397896 95.72591053 385.14331055 93.79003906 C386.09915854 91.50633567 387.06476649 89.22668119 388.04223633 86.95214844 C388.45368896 85.9624707 388.8651416 84.97279297 389.2890625 83.953125 C389.64693848 83.10911133 390.00481445 82.26509766 390.37353516 81.39550781 C391.48948405 77.12828625 390.26888486 74.48318838 388.171875 70.71484375 C387.3727735 69.4505154 386.56486349 68.19172759 385.75 66.9375 C385.31034912 66.247771 384.87069824 65.55804199 384.41772461 64.84741211 C382.95442419 62.55882957 381.47851988 60.27877642 380 58 C379.48260254 57.19981445 378.96520508 56.39962891 378.43212891 55.57519531 C375.7135577 51.37248498 372.98581725 47.17587787 370.25 42.984375 C368.13860423 39.74941505 366.03372835 36.51043443 363.9375 33.265625 C363.45506836 32.51941895 362.97263672 31.77321289 362.47558594 31.00439453 C361.54582236 29.56220079 360.61929568 28.11791424 359.69628906 26.67138672 C357.37320097 23.04427648 354.93542963 19.60711386 352.3125 16.1875 C350 12 350 12 350 0 C392.9 0 435.8 0 480 0 C480 13.4975709 480 13.4975709 477.33227539 18.58666992 C476.7458577 19.73632736 476.15944 20.8859848 475.55525208 22.07048035 C474.90288781 23.29056615 474.25035096 24.51055969 473.59765625 25.73046875 C472.9241236 27.03442919 472.25313647 28.33970719 471.58451843 29.64619446 C470.16710875 32.40764183 468.73698895 35.16190662 467.29602051 37.91113281 C463.52255727 45.11879956 459.84989674 52.37805244 456.17578125 59.63671875 C455.63033976 60.71208956 455.63033976 60.71208956 455.07387924 61.80918503 C449.1445921 73.51333471 443.6369699 85.31735295 438.75 97.5 C438.27300659 98.68742294 438.27300659 98.68742294 437.78637695 99.89883423 C436.50758925 103.09413713 435.23629195 106.29224726 433.97653198 109.49510193 C430.24056515 118.9871495 426.28902353 128.38871397 422.34997559 137.79785156 C420.64213852 141.87969064 418.9404452 145.9640792 417.23855591 150.04840088 C411.80602661 163.08379951 406.35268811 176.11047283 400.89578247 189.13568115 C394.91305816 203.41653335 388.95174289 217.70621009 383 232 C376.31586389 248.05271581 369.61488921 264.09823748 362.89550781 280.13623047 C356.91288524 294.41690368 350.95166431 308.70639881 345 323 C338.31586389 339.05271581 331.61488921 355.09823748 324.89550781 371.13623047 C318.91288514 385.41690391 312.95175425 399.70643611 307 414 C300.63863231 429.27655685 294.26694853 444.54871152 287.875 459.8125 C287.32244537 461.13201157 287.32244537 461.13201157 286.75872803 462.47817993 C283.80512853 469.53096411 280.85046723 476.58330334 277.89575195 483.63562012 C269.0687111 504.70444988 260.25056985 525.77695615 251.4598999 546.86099243 C250.57980072 548.97174559 249.69947553 551.08240454 248.81890869 553.19296265 C247.58946313 556.14004982 246.36099767 559.08754363 245.1328125 562.03515625 C244.59333984 563.32774857 244.59333984 563.32774857 244.04296875 564.64645386 C243.36261248 566.28051241 242.686211 567.91622452 242.01422119 569.55374146 C241.29986734 571.27673268 240.56639803 572.99186029 239.8192749 574.70089722 C239.44304993 575.58262604 239.06682495 576.46435486 238.67919922 577.37280273 C238.33363983 578.16460434 237.98808044 578.95640594 237.63204956 579.77220154 C236.66843602 583.16867057 237.56872317 585.16624093 239.14819336 588.21972656 C239.62393799 589.01862305 240.09968262 589.81751953 240.58984375 590.640625 C241.1216626 591.5380542 241.65348145 592.4354834 242.20141602 593.36010742 C242.77432373 594.31377197 243.34723145 595.26743652 243.9375 596.25 C244.526521 597.23782471 245.11554199 598.22564941 245.72241211 599.2434082 C249.11975106 604.92221891 252.55649746 610.57514158 256.0625 616.1875 C256.64414917 617.12420532 256.64414917 617.12420532 257.23754883 618.07983398 C259.51125835 621.71526298 261.86398422 625.28119243 264.28515625 628.8203125 C265.11744751 630.06518433 265.11744751 630.06518433 265.96655273 631.33520508 C267.03764786 632.93514652 268.12842779 634.52216221 269.24243164 636.0925293 C273.72784485 642.86086214 273 644.83496075 273 654 C228.12 654 183.24 654 137 654 C137 641.41370107 137 641.41370107 142.625 635 C143.82897708 633.53040802 145.03072228 632.05898529 146.23046875 630.5859375 C146.8548584 629.8340918 147.47924805 629.08224609 148.12255859 628.30761719 C151.2048187 624.51912271 154.06454168 620.57313196 156.9375 616.625 C158.10099599 615.0373451 159.26506298 613.4501085 160.4296875 611.86328125 C161.30318848 610.6714624 161.30318848 610.6714624 162.19433594 609.45556641 C164.06164403 606.91616879 165.93958324 604.38493965 167.8203125 601.85546875 C168.76015991 600.58872314 168.76015991 600.58872314 169.71899414 599.29638672 C170.90864659 597.69348326 172.1003903 596.0921288 173.29467773 594.49267578 C173.83809814 593.75903809 174.38151855 593.02540039 174.94140625 592.26953125 C175.41263916 591.63635986 175.88387207 591.00318848 176.36938477 590.35083008 C180.70930382 584.09404304 184.08798182 577.92825827 186.87109375 570.8359375 C187.22595352 569.95078461 187.58081329 569.06563171 187.94642639 568.15365601 C188.71440062 566.23557908 189.47888896 564.31610349 190.24023438 562.39538574 C191.88725764 558.24037996 193.55112358 554.09217949 195.21365356 549.94335938 C196.09791017 547.73603533 196.98125517 545.52834589 197.86373901 543.3203125 C203.01435492 530.43850792 208.25774429 517.59471431 213.5 504.75 C214.3912973 502.56433222 215.28249423 500.3786235 216.17358398 498.19287109 C216.60638168 497.13204315 217.03917938 496.07121521 217.48509216 494.97824097 C218.34305717 492.87240124 219.19901389 490.76574207 220.0528717 488.65823364 C222.10940983 483.59007942 224.18858449 478.53459529 226.33853912 473.50521469 C227.12973717 471.65112622 227.91398581 469.79424868 228.69616699 467.93634033 C229.68761781 465.58680142 230.69195916 463.24264706 231.71105957 460.90496826 C235.00506573 453.18081248 235.00506573 453.18081248 234 445 C232.83351544 442.13228569 232.83351544 442.13228569 231.26171875 439.40234375 C230.69525635 438.3654541 230.12879395 437.32856445 229.54516602 436.26025391 C228.62562134 434.61549072 228.62562134 434.61549072 227.6875 432.9375 C226.72400088 431.18218291 225.76050542 429.42686378 224.79740906 427.67132568 C223.82223675 425.89803039 222.84213506 424.12755259 221.86035156 422.35791016 C219.23865134 417.62577566 216.65079597 412.87545653 214.0625 408.125 C213.58385498 407.249646 213.10520996 406.37429199 212.61206055 405.47241211 C208.20368127 397.40380814 203.86616055 389.29763547 199.53201294 381.18902588 C195.38938325 373.44017504 191.21955879 365.70726999 187 358 C182.12291282 349.0917161 177.31910417 340.14517219 172.53173828 331.18847656 C168.38919813 323.43981017 164.21946038 315.70709024 160 308 C155.12291282 299.0917161 150.31910417 290.14517219 145.53173828 281.18847656 C141.38919813 273.43981017 137.21946038 265.70709024 133 258 C128.12291282 249.0917161 123.31910417 240.14517219 118.53173828 231.18847656 C114.38919813 223.43981017 110.21946038 215.70709024 106 208 C101.12291282 199.0917161 96.31910417 190.14517219 91.53173828 181.18847656 C87.38919813 173.43981017 83.21946038 165.70709024 79 158 C74.12291282 149.0917161 69.31910417 140.14517219 64.53173828 131.18847656 C60.38919813 123.43981017 56.21946038 115.70709024 52 108 C47.12291282 99.0917161 42.31910417 90.14517219 37.53173828 81.18847656 C32.92328559 72.56831569 28.27135772 63.97336907 23.57617188 55.40014648 C18.68208713 46.44933975 13.87395133 37.45282751 9.07421875 28.45117188 C8.47222656 27.32388672 7.87023438 26.19660156 7.25 25.03515625 C6.68667969 23.96797363 6.12335938 22.90079102 5.54296875 21.80126953 C4.31150922 19.56554696 3.00318496 17.53080137 1.5625 15.43359375 C0 12 0 12 0 0 Z " fill="#000000" transform="translate(1852,1843)"/>
<path d="M0 0 C4.83969983 -0.17920666 9.65273281 -0.0964138 14.48876953 0.109375 C15.60767578 0.15578125 16.72658203 0.2021875 17.87939453 0.25 C73.55769961 2.74984227 132.59532307 14.99749306 175.48876953 53.109375 C176.25447266 53.76679687 177.02017578 54.42421875 177.80908203 55.1015625 C196.39859328 71.3597159 212.40607932 89.48054128 224.48876953 111.109375 C224.48876953 111.769375 224.48876953 112.429375 224.48876953 113.109375 C223.12207031 113.66617839 221.75537109 114.22298177 220.38867188 114.77978516 C219.47988281 115.15003311 218.57109375 115.52028107 217.63476562 115.90174866 C215.5512711 116.7505786 213.46777494 117.59940454 211.38427734 118.44822693 C205.44722808 120.8670038 199.51020933 123.28585554 193.57324219 125.70483398 C191.06592248 126.72641081 188.55859782 127.74797548 186.05126953 128.76953125 C185.41635967 129.02821173 184.78144981 129.2868922 184.12730026 129.55341148 C175.14085938 133.21468678 166.15387211 136.87461786 157.16648483 140.53356934 C152.90543817 142.26840195 148.64453309 144.00358232 144.38360596 145.7387085 C142.05420908 146.68716552 139.72474235 147.63545099 137.39520264 148.58355713 C134.1215241 149.91594022 130.84809179 151.2489266 127.57470703 152.58203125 C126.6267627 152.96765732 125.67881836 153.35328339 124.70214844 153.75059509 C123.79432617 154.12044022 122.88650391 154.49028534 121.95117188 154.87133789 C121.06806335 155.22914337 120.18495483 155.58694885 119.27508545 155.95559692 C117.2529738 156.79292771 115.24190816 157.65709361 113.23809814 158.537323 C111.62702179 159.23899094 111.62702179 159.23899094 109.98339844 159.95483398 C108.51503036 160.60705177 108.51503036 160.60705177 107.01699829 161.27244568 C104.48876953 162.109375 104.48876953 162.109375 101.48876953 161.109375 C101.63314453 160.30242187 101.77751953 159.49546875 101.92626953 158.6640625 C106.65158573 127.75261906 105.13069064 94.33491325 86.35595703 68.1328125 C70.46784685 48.03739787 47.53924969 37.66059249 22.48876953 34.109375 C-9.55273263 30.72320806 -41.08976919 37.40578788 -66.55932617 57.93359375 C-100.77759011 86.2006471 -116.15999468 128.73773103 -120.79907227 171.7800293 C-121.61668739 180.36535145 -121.71162258 188.93147998 -121.69873047 197.546875 C-121.69812622 198.29570953 -121.69752197 199.04454407 -121.69689941 199.81607056 C-121.67027958 212.00974209 -121.24165002 224.02230038 -119.51123047 236.109375 C-119.31787109 237.47763428 -119.31787109 237.47763428 -119.12060547 238.87353516 C-114.17169769 272.66243211 -102.84288342 306.35568175 -82.51123047 334.109375 C-81.75455078 335.14964844 -80.99787109 336.18992187 -80.21826172 337.26171875 C-71.3279231 349.2563359 -61.50512441 360.14306594 -49.51123047 369.109375 C-48.55087891 369.83511719 -47.59052734 370.56085937 -46.60107422 371.30859375 C-9.60066699 398.11167004 38.00997979 406.30208308 82.75610352 399.58789062 C109.65550262 395.00067034 134.84399111 384.11509599 155.48876953 366.109375 C156.42978516 365.30113281 157.37080078 364.49289062 158.34033203 363.66015625 C170.20861348 353.26019548 179.83562025 341.26391001 188.48876953 328.109375 C196.22386318 330.53331344 203.60514099 333.60332236 211.05126953 336.796875 C212.85047852 337.56354492 212.85047852 337.56354492 214.68603516 338.34570312 C217.62163238 339.59713302 220.55581889 340.85175793 223.48876953 342.109375 C219.94760169 363.81470758 200.81312024 386.06345364 186.48876953 402.109375 C185.76560547 402.95371094 185.04244141 403.79804688 184.29736328 404.66796875 C167.77045703 423.6906509 147.58422801 438.21032788 125.48876953 450.109375 C124.81281738 450.47756348 124.13686523 450.84575195 123.44042969 451.22509766 C97.52464006 465.21743272 68.72139664 473.10371317 39.48876953 476.109375 C38.633396 476.2029126 37.77802246 476.2964502 36.89672852 476.39282227 C27.45904157 477.31427017 18.02438344 477.30904646 8.55126953 477.296875 C7.6837204 477.29627075 6.81617126 477.2956665 5.92233276 477.29504395 C-6.99300701 477.27062115 -19.71018856 476.96028142 -32.51123047 475.109375 C-33.87731445 474.9239917 -33.87731445 474.9239917 -35.27099609 474.73486328 C-90.1357922 467.14541714 -137.65699543 443.15974084 -177.51123047 405.109375 C-178.18541016 404.47644531 -178.85958984 403.84351562 -179.55419922 403.19140625 C-184.69166857 398.24203646 -189.08232451 392.68921375 -193.51123047 387.109375 C-194.29498047 386.14257812 -195.07873047 385.17578125 -195.88623047 384.1796875 C-236.27873153 333.30067174 -249.90139303 266.53071805 -243.19873047 202.76171875 C-237.54315324 154.20959816 -218.76112768 109.4050706 -184.51123047 74.109375 C-183.94533203 73.51769531 -183.37943359 72.92601562 -182.79638672 72.31640625 C-134.1387309 21.56594803 -68.49427726 2.98322343 0 0 Z " fill="#000000" transform="translate(2599.51123046875,1828.890625)"/>
</svg>
